<svg width="1612" height="410" viewBox="0 0 1612 410" fill="none" xmlns="http://www.w3.org/2000/svg">
<path d="M2 0V1H1610V0V-1H2V0ZM1612 2H1611V408H1612H1613V2H1612ZM1610 410V409H1.99996V410V411H1610V410ZM0 408H1V2H0H-1V408H0ZM1.99996 410V409C1.4477 409 1 408.552 1 408H0H-1C-1 409.657 0.343082 411 1.99996 411V410ZM1612 408H1611C1611 408.552 1610.55 409 1610 409V410V411C1611.66 411 1613 409.657 1613 408H1612ZM1610 0V1C1610.55 1 1611 1.44769 1611 2H1612H1613C1613 0.343171 1611.66 -1 1610 -1V0ZM2 0V-1C0.343147 -1 -1 0.343143 -1 2H0H1C1 1.44771 1.44771 1 2 1V0Z" fill="white" fill-opacity="0.1"/>
<g filter="url(#filter0_d_1_62)">
<path d="M176.685 28.8587C213.892 -15.9507 313.5 254.854 313.5 254.854L148.313 254.853L176.685 202.901H217.666C224.551 202.901 183.62 114.581 183.62 114.581L109.223 254.853H40.5C40.5 254.853 139.478 73.6681 176.685 28.8587Z" fill="#1E3A8A"/>
<path d="M184.438 24.5049C187.076 24.0501 189.945 24.6258 193.023 26.1524C199.2 29.215 206.085 36.0381 213.361 45.5694C227.898 64.6118 243.819 94.2218 258.594 125.268C273.364 156.304 286.973 188.744 296.891 213.427C301.849 225.768 305.885 236.168 308.681 243.483C310.078 247.141 311.166 250.028 311.904 251.999C312.273 252.985 312.555 253.742 312.744 254.252C312.757 254.287 312.77 254.321 312.782 254.354H149.155L176.982 203.4H217.666C218.039 203.4 218.356 203.24 218.575 202.946C218.774 202.679 218.871 202.331 218.915 201.969C219.003 201.241 218.903 200.229 218.671 199.012C218.203 196.559 217.159 193.08 215.724 188.937C212.849 180.64 208.372 169.587 203.686 158.545C198.998 147.501 194.095 136.458 190.364 128.176C188.499 124.035 186.926 120.584 185.82 118.168C185.267 116.96 184.83 116.011 184.532 115.363C184.383 115.04 184.269 114.791 184.191 114.624C184.153 114.54 184.123 114.477 184.104 114.435C184.094 114.413 184.086 114.397 184.081 114.387C184.079 114.382 184.076 114.378 184.075 114.375C184.075 114.374 184.075 114.372 184.074 114.371C184.073 114.371 184.054 114.38 183.62 114.581L184.074 114.37L183.65 113.457L183.179 114.347L108.922 254.354H41.3438C41.5241 254.024 41.7628 253.587 42.0586 253.048C42.7925 251.71 43.8743 249.742 45.2637 247.222C48.0424 242.181 52.0537 234.929 56.9834 226.087C66.8431 208.402 80.3772 184.355 95.0732 158.909C124.477 107.998 158.499 51.5423 177.069 29.1778C179.335 26.4487 181.805 24.9587 184.438 24.5049Z" stroke="#5B5FC7"/>
</g>
<g filter="url(#filter1_d_1_62)">
<path d="M1205.18 29.0052C1242.39 -15.8042 1342 255 1342 255L1176.81 255L1205.18 203.047H1246.17C1253.05 203.047 1212.12 114.727 1212.12 114.727L1137.72 255H1069C1069 255 1167.98 73.8146 1205.18 29.0052Z" fill="#1E3A8A"/>
<path d="M1212.94 24.6514C1215.58 24.1965 1218.44 24.7722 1221.52 26.2988C1227.7 29.3615 1234.59 36.1846 1241.86 45.7158C1256.4 64.7583 1272.32 94.3682 1287.09 125.414C1301.86 156.451 1315.47 188.891 1325.39 213.573C1330.35 225.914 1334.39 236.315 1337.18 243.63C1338.58 247.287 1339.67 250.174 1340.4 252.146C1340.77 253.131 1341.05 253.888 1341.24 254.398C1341.26 254.433 1341.27 254.467 1341.28 254.5H1177.66L1205.48 203.547H1246.17C1246.54 203.547 1246.86 203.386 1247.08 203.093C1247.27 202.825 1247.37 202.477 1247.42 202.115C1247.5 201.388 1247.4 200.376 1247.17 199.158C1246.7 196.706 1245.66 193.227 1244.22 189.083C1241.35 180.786 1236.87 169.733 1232.19 158.691C1227.5 147.647 1222.59 136.604 1218.86 128.322C1217 124.181 1215.43 120.73 1214.32 118.314C1213.77 117.107 1213.33 116.157 1213.03 115.51C1212.88 115.186 1212.77 114.938 1212.69 114.771C1212.65 114.687 1212.62 114.624 1212.6 114.581C1212.59 114.56 1212.59 114.544 1212.58 114.533C1212.58 114.528 1212.58 114.524 1212.58 114.521C1212.57 114.52 1212.57 114.518 1212.57 114.518C1212.57 114.517 1212.55 114.527 1212.12 114.728L1212.57 114.517L1212.15 113.604L1211.68 114.493L1137.42 254.5H1069.84C1070.02 254.171 1070.26 253.733 1070.56 253.194C1071.29 251.857 1072.37 249.889 1073.76 247.368C1076.54 242.327 1080.55 235.075 1085.48 226.233C1095.34 208.549 1108.88 184.502 1123.57 159.056C1152.98 108.144 1187 51.6888 1205.57 29.3242C1207.84 26.5951 1210.31 25.1051 1212.94 24.6514Z" stroke="#5B5FC7"/>
</g>
<g filter="url(#filter2_d_1_62)">
<path fill-rule="evenodd" clip-rule="evenodd" d="M337 249.13V51.7331C337 -46.4108 501.902 147.468 501.902 147.468L502.007 28.868H571.586C571.586 28.868 574.961 211.799 562.436 249.13C549.912 286.461 403.796 133.525 403.796 133.525V190.123V249.13H337Z" fill="#1E3A8A"/>
<path d="M403.296 248.63H337.5V51.7334L337.508 50.6006C337.663 39.0389 340.21 31.861 344.422 28.0391C348.744 24.1173 354.971 23.6013 362.63 25.7686C370.283 27.9343 379.25 32.7519 388.896 39.3086C398.535 45.8609 408.824 54.1305 419.121 63.1729C439.716 81.2577 460.316 102.412 475.771 119.049C483.497 127.366 489.936 134.553 494.442 139.66C496.696 142.214 498.466 144.247 499.673 145.642C500.276 146.339 500.738 146.877 501.05 147.24C501.205 147.422 501.323 147.56 501.402 147.652C501.442 147.699 501.472 147.734 501.492 147.757C501.502 147.768 501.51 147.777 501.515 147.783C501.517 147.786 501.518 147.789 501.52 147.79C501.521 147.791 501.521 147.792 501.902 147.468L501.521 147.792L502.401 148.826L502.402 147.469L502.507 29.3682H571.095C571.095 29.3794 571.096 29.3908 571.096 29.4023C571.102 29.7494 571.11 30.2652 571.121 30.9395C571.143 32.2879 571.173 34.2708 571.207 36.8076C571.275 41.8816 571.358 49.1728 571.418 58.0381C571.539 75.7689 571.569 99.7984 571.208 124.993C570.847 150.189 570.094 176.545 568.65 198.933C567.205 221.344 565.069 239.71 561.962 248.971C561.213 251.203 559.983 252.681 558.356 253.542C556.718 254.409 554.618 254.681 552.082 254.384C546.996 253.787 540.336 250.922 532.618 246.385C517.202 237.322 497.794 221.732 478.75 204.951C459.713 188.176 441.064 170.233 427.174 156.482C420.229 149.607 414.474 143.781 410.456 139.674C408.447 137.62 406.872 135.996 405.8 134.886C405.264 134.331 404.853 133.904 404.576 133.616C404.438 133.472 404.333 133.363 404.263 133.29C404.228 133.253 404.201 133.225 404.184 133.207C404.175 133.198 404.168 133.191 404.164 133.187C404.162 133.184 404.16 133.183 404.159 133.182C404.158 133.181 404.157 133.18 403.796 133.525L404.157 133.18L403.296 132.278V248.63Z" stroke="#1E3A8A"/>
</g>
<g filter="url(#filter3_d_1_62)">
<path d="M811.88 24L787.644 66.3126L721.755 66.3808C646.842 66.4584 641.666 215.101 711.25 215.029L787.798 214.95L812.119 255.003L648.672 255.172C576.424 255.247 576.184 24.2441 663.534 24.1537L811.88 24Z" fill="#1E3A8A"/>
<path d="M663.535 24.6537L811.017 24.5009L787.354 65.8125L721.755 65.8805C702.837 65.9001 688.326 75.3086 678.318 89.3601C668.318 103.399 662.801 122.082 661.817 140.735C660.833 159.386 664.379 178.065 672.569 192.097C680.77 206.144 693.642 215.547 711.25 215.529L787.518 215.45L811.231 254.504L648.671 254.672C630.926 254.69 617.489 240.523 608.694 218.931C599.91 197.366 595.841 168.569 596.753 139.74C597.666 110.911 603.558 82.1093 614.646 60.5276C625.734 38.9448 641.961 24.676 663.535 24.6537Z" stroke="#1E3A8A"/>
</g>
<g filter="url(#filter4_d_1_62)">
<path d="M902.587 25H836V256H902.587V177.636C902.587 165.346 982.555 166.606 982.555 177.636V256H1045V138.452V25H982.555V98.0136C982.555 112.825 902.587 111.565 902.587 98.0136V25Z" fill="#1E3A8A"/>
<path d="M902.087 25.5V98.0137C902.087 99.9811 903.538 101.613 905.768 102.941C908.017 104.281 911.197 105.399 914.966 106.3C922.512 108.104 932.548 109.07 942.567 109.149C952.586 109.228 962.625 108.42 970.174 106.655C973.944 105.774 977.129 104.645 979.383 103.247C981.627 101.854 983.055 100.122 983.055 98.0137V25.5H1044.5V255.5H983.055V177.637C983.055 176.783 982.664 176.013 982.018 175.338C981.375 174.667 980.459 174.062 979.338 173.516C977.094 172.422 973.921 171.505 970.156 170.764C962.619 169.278 952.59 168.47 942.575 168.391C932.561 168.312 922.528 168.963 914.987 170.409C911.222 171.131 908.044 172.058 905.795 173.21C903.58 174.345 902.087 175.796 902.087 177.637V255.5H836.5V25.5H902.087Z" stroke="#1E3A8A"/>
</g>
<g filter="url(#filter5_d_1_62)">
<path d="M1438.5 25H1366V256H1546L1572 192C1572 192 1461.06 208.445 1438.5 192C1415.94 175.555 1438.5 25 1438.5 25Z" fill="#1E3A8A"/>
<path d="M1437.92 25.5C1437.88 25.7778 1437.82 26.1538 1437.76 26.623C1437.6 27.7307 1437.37 29.3572 1437.08 31.4326C1436.51 35.5836 1435.71 41.5321 1434.83 48.7207C1433.07 63.0971 1430.95 82.4395 1429.54 102.298C1428.13 122.152 1427.42 142.54 1428.48 159.001C1429.01 167.23 1429.98 174.497 1431.54 180.233C1433.09 185.946 1435.24 190.243 1438.21 192.404C1441.11 194.521 1445.39 196.08 1450.61 197.21C1455.84 198.342 1462.05 199.051 1468.85 199.438C1482.45 200.21 1498.46 199.694 1513.75 198.666C1529.03 197.637 1543.61 196.095 1554.37 194.81C1559.75 194.167 1564.18 193.588 1567.26 193.17C1568.8 192.961 1570 192.792 1570.82 192.676C1570.96 192.656 1571.09 192.636 1571.21 192.619L1545.66 255.5H1366.5V25.5H1437.92Z" stroke="#1E3A8A"/>
</g>
<g filter="url(#filter6_d_1_62)">
<path d="M103.648 365H41.92V361.16H49.6V292.04H41.92V288.2H103.648V310.28H99.328V292.04H71.68V323.72H96.448V327.56H71.68V361.16H99.328V342.92H103.648V365ZM210.559 292.04H202.879V365H176.959L140.575 292.04V361.16H148.255V365H128.575V361.16H136.255V292.04H128.575V288.2H162.175L198.559 361.16V292.04H190.879V288.2H210.559V292.04ZM237.396 298.088L247.284 288.2H286.164L292.884 294.92V287.24H297.204V311.24H292.884V300.872L284.052 292.04H259.476V361.16H271.476L278.676 353.96V329.48H270.996V325.64H306.996V329.48H300.276V365H288.084L280.884 357.704L273.588 365H247.284L237.396 355.112V298.088ZM366.512 288.2V292.04H358.832V361.16H366.512V365H329.072V361.16H336.752V292.04H329.072V288.2H366.512ZM469.586 292.04H461.906V365H435.986L399.602 292.04V361.16H407.282V365H387.602V361.16H395.282V292.04H387.602V288.2H421.202L457.586 361.16V292.04H449.906V288.2H469.586V292.04ZM552.392 365H490.664V361.16H498.344V292.04H490.664V288.2H552.392V310.28H548.072V292.04H520.424V323.72H545.192V327.56H520.424V361.16H548.072V342.92H552.392V365ZM617.639 365H580.199V361.16H587.879V292.04H580.199V288.2H638.759L647.687 297.128V318.632L639.719 326.6L647.687 334.568V361.16H655.367V365H633.575L625.607 357.032V328.52H609.959V361.16H617.639V365ZM609.959 292.04V324.68H625.607V292.04H609.959ZM714.888 365H677.448V361.16H685.128V292.04H677.448V288.2H736.008L744.936 297.128V318.632L736.968 326.6L744.936 334.568V361.16H752.616V365H730.824L722.856 357.032V328.52H707.208V361.16H714.888V365ZM707.208 292.04V324.68H722.856V292.04H707.208ZM809.256 288.2V292.04H801.576V361.16H809.256V365H771.816V361.16H779.496V292.04H771.816V288.2H809.256ZM912.33 292.04H904.65V365H878.73L842.346 292.04V361.16H850.026V365H830.346V361.16H838.026V292.04H830.346V288.2H863.946L900.33 361.16V292.04H892.65V288.2H912.33V292.04ZM939.167 298.088L949.055 288.2H987.935L994.655 294.92V287.24H998.975V311.24H994.655V300.872L985.823 292.04H961.247V361.16H973.247L980.447 353.96V329.48H972.767V325.64H1008.77V329.48H1002.05V365H989.855L982.655 357.704L975.359 365H949.055L939.167 355.112V298.088ZM1187.97 292.04H1181.64L1162.05 365H1139.11L1129.99 331.208L1120.97 365H1098.02L1078.44 292.04H1072.1V288.2H1149.57V292.04H1142.47L1159.75 356.456L1177.03 292.04H1166.57V288.2H1187.97V292.04ZM1127.78 322.76L1119.53 292.04H1101.38L1118.66 356.456L1127.78 322.76ZM1220.86 365L1210.97 355.112V298.088L1220.86 288.2H1263.96L1273.85 298.088V355.112L1263.96 365H1220.86ZM1233.05 292.04V361.16H1251.77V292.04H1233.05ZM1338.16 365H1300.72V361.16H1308.4V292.04H1300.72V288.2H1359.28L1368.21 297.128V318.632L1360.24 326.6L1368.21 334.568V361.16H1375.89V365H1354.1L1346.13 357.032V328.52H1330.48V361.16H1338.16V365ZM1330.48 292.04V324.68H1346.13V292.04H1330.48ZM1424.85 361.16H1431.57V365H1395.09V361.16H1402.77V292.04H1395.09V288.2H1431.57V292.04H1424.85V361.16ZM1476.5 361.16V365H1446.06L1428.21 328.424V324.68L1454.7 292.04H1446.16V288.2H1469.78V292.04H1459.98L1433.58 324.68H1452.02L1469.78 361.16H1476.5ZM1497.65 341.96H1501.97V352.328L1510.81 361.16H1541.72L1498.61 310.376V297.128L1507.54 288.2H1545.27L1551.99 294.92V287.24H1556.31V311.24H1551.99V300.872L1543.16 292.04H1515.13L1558.23 342.824V356.072L1549.3 365H1508.69L1501.97 358.28V365.96H1497.65V341.96Z" fill="#1E3A8A"/>
</g>
<defs>
<filter id="filter0_d_1_62" x="36.5" y="23.8535" width="281" height="239" filterUnits="userSpaceOnUse" color-interpolation-filters="sRGB">
<feFlood flood-opacity="0" result="BackgroundImageFix"/>
<feColorMatrix in="SourceAlpha" type="matrix" values="0 0 0 0 0 0 0 0 0 0 0 0 0 0 0 0 0 0 127 0" result="hardAlpha"/>
<feOffset dy="4"/>
<feGaussianBlur stdDeviation="2"/>
<feComposite in2="hardAlpha" operator="out"/>
<feColorMatrix type="matrix" values="0 0 0 0 0.94902 0 0 0 0 0.94902 0 0 0 0 0.968627 0 0 0 1 0"/>
<feBlend mode="normal" in2="BackgroundImageFix" result="effect1_dropShadow_1_62"/>
<feBlend mode="normal" in="SourceGraphic" in2="effect1_dropShadow_1_62" result="shape"/>
</filter>
<filter id="filter1_d_1_62" x="1065" y="24" width="281" height="239" filterUnits="userSpaceOnUse" color-interpolation-filters="sRGB">
<feFlood flood-opacity="0" result="BackgroundImageFix"/>
<feColorMatrix in="SourceAlpha" type="matrix" values="0 0 0 0 0 0 0 0 0 0 0 0 0 0 0 0 0 0 127 0" result="hardAlpha"/>
<feOffset dy="4"/>
<feGaussianBlur stdDeviation="2"/>
<feComposite in2="hardAlpha" operator="out"/>
<feColorMatrix type="matrix" values="0 0 0 0 0.94902 0 0 0 0 0.94902 0 0 0 0 0.968627 0 0 0 1 0"/>
<feBlend mode="normal" in2="BackgroundImageFix" result="effect1_dropShadow_1_62"/>
<feBlend mode="normal" in="SourceGraphic" in2="effect1_dropShadow_1_62" result="shape"/>
</filter>
<filter id="filter2_d_1_62" x="333" y="24" width="243" height="239" filterUnits="userSpaceOnUse" color-interpolation-filters="sRGB">
<feFlood flood-opacity="0" result="BackgroundImageFix"/>
<feColorMatrix in="SourceAlpha" type="matrix" values="0 0 0 0 0 0 0 0 0 0 0 0 0 0 0 0 0 0 127 0" result="hardAlpha"/>
<feOffset dy="4"/>
<feGaussianBlur stdDeviation="2"/>
<feComposite in2="hardAlpha" operator="out"/>
<feColorMatrix type="matrix" values="0 0 0 0 0.94902 0 0 0 0 0.94902 0 0 0 0 0.968627 0 0 0 1 0"/>
<feBlend mode="normal" in2="BackgroundImageFix" result="effect1_dropShadow_1_62"/>
<feBlend mode="normal" in="SourceGraphic" in2="effect1_dropShadow_1_62" result="shape"/>
</filter>
<filter id="filter3_d_1_62" x="592.128" y="24" width="223.991" height="239.172" filterUnits="userSpaceOnUse" color-interpolation-filters="sRGB">
<feFlood flood-opacity="0" result="BackgroundImageFix"/>
<feColorMatrix in="SourceAlpha" type="matrix" values="0 0 0 0 0 0 0 0 0 0 0 0 0 0 0 0 0 0 127 0" result="hardAlpha"/>
<feOffset dy="4"/>
<feGaussianBlur stdDeviation="2"/>
<feComposite in2="hardAlpha" operator="out"/>
<feColorMatrix type="matrix" values="0 0 0 0 0.94902 0 0 0 0 0.94902 0 0 0 0 0.968627 0 0 0 1 0"/>
<feBlend mode="normal" in2="BackgroundImageFix" result="effect1_dropShadow_1_62"/>
<feBlend mode="normal" in="SourceGraphic" in2="effect1_dropShadow_1_62" result="shape"/>
</filter>
<filter id="filter4_d_1_62" x="832" y="25" width="217" height="239" filterUnits="userSpaceOnUse" color-interpolation-filters="sRGB">
<feFlood flood-opacity="0" result="BackgroundImageFix"/>
<feColorMatrix in="SourceAlpha" type="matrix" values="0 0 0 0 0 0 0 0 0 0 0 0 0 0 0 0 0 0 127 0" result="hardAlpha"/>
<feOffset dy="4"/>
<feGaussianBlur stdDeviation="2"/>
<feComposite in2="hardAlpha" operator="out"/>
<feColorMatrix type="matrix" values="0 0 0 0 0.94902 0 0 0 0 0.94902 0 0 0 0 0.968627 0 0 0 1 0"/>
<feBlend mode="normal" in2="BackgroundImageFix" result="effect1_dropShadow_1_62"/>
<feBlend mode="normal" in="SourceGraphic" in2="effect1_dropShadow_1_62" result="shape"/>
</filter>
<filter id="filter5_d_1_62" x="1362" y="25" width="214" height="239" filterUnits="userSpaceOnUse" color-interpolation-filters="sRGB">
<feFlood flood-opacity="0" result="BackgroundImageFix"/>
<feColorMatrix in="SourceAlpha" type="matrix" values="0 0 0 0 0 0 0 0 0 0 0 0 0 0 0 0 0 0 127 0" result="hardAlpha"/>
<feOffset dy="4"/>
<feGaussianBlur stdDeviation="2"/>
<feComposite in2="hardAlpha" operator="out"/>
<feColorMatrix type="matrix" values="0 0 0 0 0.94902 0 0 0 0 0.94902 0 0 0 0 0.968627 0 0 0 1 0"/>
<feBlend mode="normal" in2="BackgroundImageFix" result="effect1_dropShadow_1_62"/>
<feBlend mode="normal" in="SourceGraphic" in2="effect1_dropShadow_1_62" result="shape"/>
</filter>
<filter id="filter6_d_1_62" x="37.92" y="287.24" width="1524.31" height="86.72" filterUnits="userSpaceOnUse" color-interpolation-filters="sRGB">
<feFlood flood-opacity="0" result="BackgroundImageFix"/>
<feColorMatrix in="SourceAlpha" type="matrix" values="0 0 0 0 0 0 0 0 0 0 0 0 0 0 0 0 0 0 127 0" result="hardAlpha"/>
<feOffset dy="4"/>
<feGaussianBlur stdDeviation="2"/>
<feComposite in2="hardAlpha" operator="out"/>
<feColorMatrix type="matrix" values="0 0 0 0 0.94902 0 0 0 0 0.94902 0 0 0 0 0.968627 0 0 0 1 0"/>
<feBlend mode="normal" in2="BackgroundImageFix" result="effect1_dropShadow_1_62"/>
<feBlend mode="normal" in="SourceGraphic" in2="effect1_dropShadow_1_62" result="shape"/>
</filter>
</defs>
</svg>
